PathFileType	4	(X/Y/Z)	D:\TRACE\spotREDO_2-26-24\spot_justBody_Motion_3_3-v60.trc
DataRate	CameraRate	NumFrames	NumMarkers	Units	OrigDataRate	OrigDataStartFrame	OrigNumFrames
100.00	100.00	      41	9	mm	100.00	5251	      7000
Frame#	Time	front left toe			Front right toe			aft left toe			aft right toe			Arm			FL body			FR body			AL Body			AR Body			
		X1	Y1	Z1	X2	Y2	Z2	X3	Y3	Z3	X4	Y4	Z4	X5	Y5	Z5	X6	Y6	Z6	X7	Y7	Z7	X8	Y8	Z8	X9	Y9	Z9	

5251	52.500	-340.12173	14.02103	-116.08106	190.27509	11.61124	-230.75682	-319.26401	44.60264	378.10492	269.49506	46.44772	297.79648	-132.66109	793.14453	-358.57141	-207.08815	533.78577	-311.87042	-53.42138	540.38715	-336.48514	-78.77720	585.03143	561.15161	60.96804	591.70929	541.26288	
5252	52.510	-339.68958	14.00413	-116.06991	191.25000	12.22675	-230.38756	-318.84796	44.31703	378.26733	269.71680	46.41407	297.78403	-133.50821	792.72589	-360.23822	-208.47772	533.82013	-313.24652	-54.50590	540.10699	-337.99454	-79.65661	584.97028	559.72949	59.74499	591.61700	539.62994	
5253	52.520	-339.41226	14.06890	-116.07118	191.44269	12.45689	-230.40271	-318.59982	43.96087	378.38528	270.36166	46.44866	297.70230	-134.84703	792.64789	-361.86740	-209.55081	533.56396	-315.00299	-55.45367	539.82153	-339.65808	-80.84390	584.94916	558.10272	58.46036	591.51422	538.11066	
5254	52.530	-339.27444	14.27351	-116.13432	191.79753	12.68812	-230.12827	-318.18445	43.93456	378.46277	269.77951	45.27888	297.43533	-135.89082	792.42017	-363.75320	-210.81032	533.28015	-316.69922	-56.97856	539.48914	-341.50031	-82.16778	584.89282	556.28033	57.19851	591.36346	536.37488	
5255	52.540	-339.25345	13.89246	-116.42907	192.15759	12.32878	-230.51923	-318.30679	43.51043	378.26028	269.87729	46.39090	296.43137	-137.13040	792.43707	-365.75266	-212.11403	533.08319	-318.65079	-58.40107	539.29956	-343.35776	-83.71735	584.92590	554.41449	55.99853	591.22284	534.43530	
5256	52.550	-339.58081	13.71854	-116.38477	191.64313	12.46880	-230.78510	-318.75824	42.73058	378.50604	273.91699	55.27358	298.13113	-138.81519	792.17249	-367.52463	-214.45135	533.44055	-320.77100	-60.35893	539.14105	-345.46555	-84.51413	584.63385	552.49500	54.49281	590.40729	531.92902	
5257	52.560	-339.66864	13.96060	-116.00452	190.83246	12.12797	-231.71703	-318.75345	42.03236	378.66974	268.91965	63.10159	305.18060	-140.00659	792.04645	-369.48773	-216.47090	533.99628	-322.31906	-62.49726	539.06061	-347.39328	-84.73782	583.89801	550.45129	54.14099	589.22388	529.88177	
5258	52.570	-339.38361	13.88482	-116.23063	190.77730	12.91558	-232.07712	-318.21320	42.18564	378.56924	269.03491	75.63361	310.59641	-140.72545	792.47156	-371.13458	-218.66096	534.24530	-323.97430	-64.77659	538.85834	-349.37845	-85.60748	583.86127	548.44965	54.36265	588.10773	527.84863	
5259	52.580	-339.42651	13.31628	-116.02837	191.04192	13.29784	-231.76396	-317.67783	42.37434	378.36716	266.95273	87.33917	311.14194	-141.97249	792.54938	-372.84668	-220.32768	533.86938	-325.85062	-66.27956	538.08612	-351.11597	-86.80400	584.27118	546.61639	53.65912	588.34033	526.07629	
5260	52.590	-339.51465	12.69138	-116.04994	191.50682	13.35553	-231.72340	-317.51938	42.48769	378.31671	267.10843	100.94511	304.61639	-143.71394	792.02460	-374.86078	-221.08551	533.16046	-327.27252	-67.28877	537.29218	-352.59937	-88.23805	584.86981	545.05688	51.07032	589.34094	524.33136	
5261	52.600	-339.46759	12.55714	-116.31911	191.24994	13.16873	-231.62161	-317.78149	42.18309	378.43817	265.66571	113.29610	296.64301	-145.18056	790.67017	-376.64664	-222.27774	533.02026	-329.03259	-68.52934	536.77765	-354.19260	-89.81139	585.06177	543.58276	49.22509	589.72467	523.00586	
5262	52.610	-339.38766	12.80455	-116.33002	191.59665	13.23229	-231.50560	-317.90427	41.75779	378.45087	261.14398	124.03470	290.11450	-146.00441	789.89459	-378.43533	-223.34955	532.80933	-330.36554	-69.10488	536.63965	-355.32452	-90.95882	585.01636	542.10547	48.39894	589.53473	521.68689	
5263	52.620	-339.19934	13.03005	-116.39167	191.52647	13.46981	-231.70775	-317.82703	41.41774	378.53711	256.25055	132.77917	288.64258	-146.50815	789.85834	-380.21704	-224.20139	532.64398	-331.95908	-69.98315	536.47864	-356.85861	-92.34658	584.96167	540.76532	47.40031	589.06067	520.55225	
5264	52.630	-339.08334	12.96770	-116.36503	191.69902	13.57430	-231.70558	-317.75476	41.24758	378.63660	251.26308	140.50342	289.77325	-146.79520	790.06580	-381.26181	-224.83817	532.53040	-333.15082	-70.92470	536.33167	-358.13666	-93.15322	584.81055	539.44299	46.45813	588.77869	518.92303	
5265	52.640	-338.93582	12.87655	-116.24739	191.70012	13.75278	-231.92595	-317.40125	40.97095	378.64001	249.36731	148.58658	291.12305	-147.40948	790.14581	-382.41837	-225.81575	532.48651	-334.59280	-71.87634	536.20062	-359.55887	-93.87048	585.14606	538.40442	45.78574	588.65002	517.76666	
5266	52.650	-338.84778	12.83846	-116.28632	191.90875	13.80766	-231.87540	-317.27704	40.87645	378.62311	247.05244	155.54648	290.88562	-147.71019	790.02429	-383.63559	-226.55579	532.31006	-335.59875	-72.55301	535.92963	-360.69064	-94.85258	585.14258	537.15240	44.80246	588.83575	516.50189	
5267	52.660	-338.68805	12.83244	-116.40318	191.93350	14.02052	-231.86356	-317.21570	40.77629	378.62714	246.47066	162.10208	288.05240	-148.20422	789.69830	-384.85303	-226.76935	531.76776	-336.65286	-72.84093	535.69666	-361.79843	-96.02036	584.81592	535.98901	43.64105	588.93024	515.66907	
5268	52.670	-338.62061	12.82596	-116.46563	191.98064	14.16245	-231.77722	-317.01184	40.52191	378.66785	243.69701	166.00023	284.02216	-149.11172	789.38306	-386.23087	-227.08710	531.66913	-337.88828	-73.12877	535.56439	-362.71613	-97.35044	584.97662	534.72571	42.43307	589.18176	514.72729	
5269	52.680	-338.57922	12.84622	-116.49342	192.33543	14.03769	-231.64702	-317.04480	40.28606	378.66629	240.51195	166.94109	281.04666	-149.48415	788.83881	-386.94687	-227.43854	531.43494	-339.01782	-73.30177	535.29938	-363.49484	-98.23051	585.01776	533.98096	41.41326	589.17999	513.90637	
5270	52.690	-338.53802	13.00420	-116.56334	192.75230	14.76294	-231.65193	-317.03940	40.06529	378.71231	236.04678	165.54994	279.07928	-149.99615	788.88336	-388.21448	-227.81969	531.52863	-339.83450	-73.72948	535.42737	-364.46674	-99.00552	585.06726	533.02466	40.78450	589.21375	513.09222	
5271	52.700	-338.49329	13.14086	-116.54671	192.78786	14.84873	-231.69527	-317.08408	39.87218	378.73337	232.35223	163.19429	278.33994	-149.97151	789.12970	-388.91614	-228.27046	531.67188	-340.82822	-74.12391	535.45105	-365.15085	-99.24584	584.96692	532.31970	40.39734	588.96045	512.24731	
5272	52.710	-338.35886	13.24049	-116.52567	192.77066	14.99235	-231.73492	-316.95523	39.79094	378.76147	228.75381	161.35484	277.46890	-149.97845	789.30884	-389.43188	-228.56619	531.87982	-341.62610	-74.68549	535.69183	-366.11237	-99.62413	585.22516	531.66138	40.19756	588.62714	511.52936	
5273	52.720	-338.16208	13.24031	-116.50629	192.93323	14.95385	-231.75134	-316.86353	39.55148	378.71994	225.38887	160.71631	276.23599	-150.40701	789.60626	-390.06955	-229.01917	532.06390	-342.21652	-75.00755	535.82953	-366.85361	-99.80653	584.66235	530.84216	39.88518	588.59985	510.74844	
5274	52.730	-338.03735	13.25396	-116.46803	192.83112	15.23859	-231.74432	-316.81638	39.40565	378.66705	222.72369	160.80273	274.63373	-150.80859	789.59058	-390.69312	-229.09029	531.84674	-342.70468	-75.28208	535.63385	-367.26654	-100.20630	584.61322	530.18524	39.55971	588.61761	510.25208	
5275	52.740	-337.83359	13.24004	-116.34171	192.46010	14.85398	-231.78778	-316.74661	39.25771	378.60083	219.80745	161.27826	272.66208	-151.15584	789.57410	-391.18286	-229.47682	531.78467	-343.26688	-75.72908	535.63556	-367.97461	-100.53678	584.57770	529.46265	39.49672	588.51984	509.51352	
5276	52.750	-337.66620	13.15162	-116.35297	192.66209	14.94361	-231.75554	-316.63739	39.12672	378.58035	217.07104	161.41179	270.49185	-151.83914	789.29913	-392.03098	-229.84497	531.64337	-343.74161	-75.92226	535.57239	-368.50226	-100.28928	584.57275	529.01752	39.30612	588.65039	508.96500	
5277	52.760	-337.57892	13.18381	-116.29317	192.67781	15.01345	-231.69650	-316.51379	39.09861	378.61313	213.99567	160.94955	268.76352	-152.07843	789.14130	-392.40012	-230.00487	531.38202	-344.25403	-75.91522	535.54480	-369.08438	-100.26709	584.73358	528.58453	39.13097	588.83722	508.54053	
5278	52.770	-337.48792	13.13981	-116.25051	193.03345	15.00928	-231.44463	-316.34659	39.05787	378.60303	210.71815	158.51125	266.69824	-152.32909	788.86047	-392.89987	-230.13986	531.14270	-344.57819	-75.88267	534.98505	-368.98325	-100.37567	584.92023	528.05847	39.08453	589.17767	508.12912	
5279	52.780	-337.39478	13.13506	-116.22685	193.00105	15.06791	-231.48526	-316.27386	39.02191	378.61932	207.66576	153.62708	264.39954	-152.38919	788.74713	-393.33765	-230.19897	531.13263	-344.98611	-75.97842	534.87000	-369.18414	-100.47720	585.09192	527.61725	39.05829	589.54401	507.65854	
5280	52.790	-337.36279	13.17145	-116.21787	193.09525	15.25456	-231.39072	-316.20557	38.81505	378.67679	204.67178	146.50531	262.18106	-152.48373	788.81207	-393.77649	-230.19440	531.18768	-345.17578	-76.03838	534.91919	-369.52390	-100.51156	585.23181	527.31268	39.02308	589.60748	507.38684	
5281	52.800	-337.32187	13.28461	-116.14249	193.06607	15.33300	-231.38655	-316.27731	38.59256	378.74100	201.86720	137.29381	260.11533	-152.63602	789.03857	-394.06412	-230.22208	531.33826	-345.41080	-76.07973	535.02338	-369.73807	-100.44700	585.23346	527.17328	38.97603	589.54071	507.12216	
5282	52.810	-337.30151	13.39813	-116.09156	193.04550	15.39546	-231.37950	-316.28973	38.36898	378.86679	199.63489	126.04411	258.60544	-152.57515	789.29028	-394.08374	-230.27083	531.57715	-345.56842	-76.07270	535.27997	-370.00000	-100.45300	585.17151	527.03125	39.04622	589.34814	506.95328	
5283	52.820	-337.24689	13.51768	-116.01604	193.03149	15.44405	-231.32385	-316.28937	38.14170	379.00580	197.19991	114.54641	257.37262	-152.34299	789.79803	-393.95224	-230.35242	532.15021	-345.90518	-76.11623	535.74988	-370.23874	-100.35422	584.96503	526.99677	39.23479	588.95709	506.80344	
5284	52.830	-337.24573	13.62000	-115.95415	192.94382	15.61673	-231.33241	-316.22226	37.97065	379.05362	195.09819	102.85800	257.10153	-152.17319	790.24304	-393.83566	-230.09801	532.55383	-345.88889	-76.11192	536.06635	-370.26910	-100.10648	584.67633	527.00269	39.63480	588.54718	506.85870	
5285	52.840	-337.17780	13.74106	-115.83192	193.07773	15.49359	-231.31537	-316.13226	37.81228	379.16669	193.43573	92.95290	257.00006	-151.97711	790.50183	-393.65067	-229.93513	532.78320	-345.88901	-75.99464	536.22943	-370.36459	-99.89109	584.32031	527.00543	39.83105	588.33459	506.80798	
5286	52.850	-337.18793	13.82255	-115.78483	192.92970	15.68691	-231.34271	-315.95547	37.68437	379.19193	192.23291	82.23479	256.59872	-151.85066	790.80566	-393.53049	-229.78401	532.92694	-345.89160	-75.85752	536.35437	-370.41687	-100.00704	584.91736	527.46783	40.18107	588.01178	506.68912	
5287	52.860	-337.13635	13.87606	-115.76190	193.05367	15.69369	-231.26831	-315.88736	37.58226	379.25726	189.84018	71.73341	255.57701	-151.73163	790.84320	-393.47330	-230.49582	533.51068	-346.66977	-75.64957	536.43542	-370.34055	-99.80431	584.80414	527.47461	40.30418	588.05957	506.69461	
5288	52.870	-337.15381	13.93798	-115.67007	193.01535	15.75958	-231.24542	-315.85440	37.57581	379.27838	190.13748	62.15103	255.31195	-151.49709	790.82147	-393.38370	-229.62462	533.01196	-345.76532	-75.47238	536.43774	-370.24185	-99.45313	584.74664	527.49652	40.51376	587.98486	506.73978	
5289	52.880	-337.11920	14.00474	-115.63785	193.29778	15.66858	-231.01784	-315.83603	37.54381	379.31689	190.40697	52.10052	254.72049	-151.18376	790.78473	-393.29083	-229.58267	533.12030	-345.76541	-75.26477	536.49628	-370.13077	-99.08428	584.67285	527.62054	40.66400	587.87659	506.86539	
5290	52.890	-337.10974	14.09039	-115.61393	193.24304	15.69774	-231.04501	-315.84912	37.50136	379.35703	189.64713	41.72179	254.04642	-150.88646	790.96167	-393.08972	-229.40733	533.31384	-345.65314	-75.14740	536.62805	-369.97076	-98.36108	584.06805	527.54822	41.02847	587.71094	507.06387	
5291	52.900	-337.12177	14.15626	-115.58645	193.03545	15.84927	-231.14162	-315.79703	37.34856	379.49649	189.73013	36.12735	251.98865	-150.63411	791.26776	-392.78464	-229.00438	533.44348	-345.29391	-74.95528	536.81219	-369.79282	-98.31304	583.44110	527.38556	41.43592	587.33807	507.13632	
